<svg xmlns="http://www.w3.org/2000/svg" viewBox="0 0 60 110">
  <path d="M14 4L42 4C44 30 42 58 38 84L22 86C18 60 14 32 14 4Z" fill="#56657a" stroke="#4a3a30" stroke-width="2.6" stroke-linejoin="round"/>
  <path d="M34 8C38 32 38 60 34 82L38 84C42 58 44 30 42 4Z" fill="#3e4b5e"/>
  <path d="M20 56C26 58 34 58 40 56" fill="none" stroke="#3e4b5e" stroke-width="2" stroke-linecap="round"/>
  <!-- 足首と足 -->
  <path d="M22 82C28 80 36 80 40 84C46 88 52 92 54 98L20 100C18 94 18 88 22 82Z" fill="#f1cda9" stroke="#4a3a30" stroke-width="2.4" stroke-linejoin="round"/>
  <!-- わらじ -->
  <path d="M12 98C26 95 46 95 58 99C58 105 52 107 46 107L18 107C12 107 9 101 12 98Z" fill="#d9c089" stroke="#4a3a30" stroke-width="2.4" stroke-linejoin="round"/>
  <path d="M18 101h34M16 104h36" stroke="#b39a60" stroke-width="1.3"/>
  <path d="M26 98C28 92 34 88 40 90M40 90C44 92 48 96 50 98" fill="none" stroke="#7a5a3a" stroke-width="2.2" stroke-linecap="round"/>
</svg>
